<mxfile host="app.diagrams.net" modified="2024-04-10T21:50:12.502Z" agent="Mozilla/5.0 (Windows NT 10.0; Win64; x64) AppleWebKit/537.36 (KHTML, like Gecko) Chrome/122.0.0.0 Safari/537.36 Avast/122.0.0.0" etag="ZL28WmiWGL2aN94Y1BkC" version="24.0.4" type="device">
  <diagram id="C5RBs43oDa-KdzZeNtuy" name="Page-1">
    <mxGraphModel dx="1880" dy="771" grid="1" gridSize="10" guides="1" tooltips="1" connect="1" arrows="1" fold="1" page="1" pageScale="1" pageWidth="827" pageHeight="1169" math="0" shadow="0">
      <root>
        <mxCell id="WIyWlLk6GJQsqaUBKTNV-0" />
        <mxCell id="WIyWlLk6GJQsqaUBKTNV-1" parent="WIyWlLk6GJQsqaUBKTNV-0" />
        <mxCell id="Ugt3QYoSn1SEHyweIvQO-22" style="edgeStyle=orthogonalEdgeStyle;rounded=0;orthogonalLoop=1;jettySize=auto;html=1;exitX=1;exitY=1;exitDx=0;exitDy=0;entryX=0;entryY=0;entryDx=0;entryDy=0;" edge="1" parent="WIyWlLk6GJQsqaUBKTNV-1" source="Ugt3QYoSn1SEHyweIvQO-0" target="Ugt3QYoSn1SEHyweIvQO-7">
          <mxGeometry relative="1" as="geometry" />
        </mxCell>
        <mxCell id="Ugt3QYoSn1SEHyweIvQO-47" value="M" style="edgeLabel;html=1;align=center;verticalAlign=middle;resizable=0;points=[];" vertex="1" connectable="0" parent="Ugt3QYoSn1SEHyweIvQO-22">
          <mxGeometry x="-0.1591" y="-1" relative="1" as="geometry">
            <mxPoint as="offset" />
          </mxGeometry>
        </mxCell>
        <mxCell id="Ugt3QYoSn1SEHyweIvQO-27" style="edgeStyle=orthogonalEdgeStyle;rounded=0;orthogonalLoop=1;jettySize=auto;html=1;entryX=0;entryY=0.5;entryDx=0;entryDy=0;" edge="1" parent="WIyWlLk6GJQsqaUBKTNV-1" source="Ugt3QYoSn1SEHyweIvQO-0" target="Ugt3QYoSn1SEHyweIvQO-6">
          <mxGeometry relative="1" as="geometry" />
        </mxCell>
        <mxCell id="Ugt3QYoSn1SEHyweIvQO-44" value="M" style="edgeLabel;html=1;align=center;verticalAlign=middle;resizable=0;points=[];" vertex="1" connectable="0" parent="Ugt3QYoSn1SEHyweIvQO-27">
          <mxGeometry x="-0.0035" y="-5" relative="1" as="geometry">
            <mxPoint x="4" as="offset" />
          </mxGeometry>
        </mxCell>
        <mxCell id="Ugt3QYoSn1SEHyweIvQO-31" style="edgeStyle=orthogonalEdgeStyle;rounded=0;orthogonalLoop=1;jettySize=auto;html=1;entryX=0.5;entryY=0;entryDx=0;entryDy=0;" edge="1" parent="WIyWlLk6GJQsqaUBKTNV-1" source="Ugt3QYoSn1SEHyweIvQO-0" target="Ugt3QYoSn1SEHyweIvQO-4">
          <mxGeometry relative="1" as="geometry" />
        </mxCell>
        <mxCell id="Ugt3QYoSn1SEHyweIvQO-50" value="1" style="edgeLabel;html=1;align=center;verticalAlign=middle;resizable=0;points=[];" vertex="1" connectable="0" parent="Ugt3QYoSn1SEHyweIvQO-31">
          <mxGeometry x="0.0467" y="2" relative="1" as="geometry">
            <mxPoint x="-4" as="offset" />
          </mxGeometry>
        </mxCell>
        <mxCell id="Ugt3QYoSn1SEHyweIvQO-33" style="edgeStyle=orthogonalEdgeStyle;rounded=0;orthogonalLoop=1;jettySize=auto;html=1;exitX=0.5;exitY=0;exitDx=0;exitDy=0;entryX=0.5;entryY=1;entryDx=0;entryDy=0;" edge="1" parent="WIyWlLk6GJQsqaUBKTNV-1" source="Ugt3QYoSn1SEHyweIvQO-0" target="Ugt3QYoSn1SEHyweIvQO-11">
          <mxGeometry relative="1" as="geometry" />
        </mxCell>
        <mxCell id="Ugt3QYoSn1SEHyweIvQO-36" style="edgeStyle=orthogonalEdgeStyle;rounded=0;orthogonalLoop=1;jettySize=auto;html=1;exitX=0.75;exitY=0;exitDx=0;exitDy=0;entryX=0.5;entryY=1;entryDx=0;entryDy=0;" edge="1" parent="WIyWlLk6GJQsqaUBKTNV-1" source="Ugt3QYoSn1SEHyweIvQO-0" target="Ugt3QYoSn1SEHyweIvQO-12">
          <mxGeometry relative="1" as="geometry" />
        </mxCell>
        <mxCell id="Ugt3QYoSn1SEHyweIvQO-0" value="Song" style="rounded=0;whiteSpace=wrap;html=1;" vertex="1" parent="WIyWlLk6GJQsqaUBKTNV-1">
          <mxGeometry x="80" y="170" width="120" height="60" as="geometry" />
        </mxCell>
        <mxCell id="Ugt3QYoSn1SEHyweIvQO-29" style="edgeStyle=orthogonalEdgeStyle;rounded=0;orthogonalLoop=1;jettySize=auto;html=1;entryX=0.5;entryY=1;entryDx=0;entryDy=0;" edge="1" parent="WIyWlLk6GJQsqaUBKTNV-1" source="Ugt3QYoSn1SEHyweIvQO-1" target="Ugt3QYoSn1SEHyweIvQO-6">
          <mxGeometry relative="1" as="geometry" />
        </mxCell>
        <mxCell id="Ugt3QYoSn1SEHyweIvQO-46" value="M" style="edgeLabel;html=1;align=center;verticalAlign=middle;resizable=0;points=[];" vertex="1" connectable="0" parent="Ugt3QYoSn1SEHyweIvQO-29">
          <mxGeometry x="-0.2144" relative="1" as="geometry">
            <mxPoint as="offset" />
          </mxGeometry>
        </mxCell>
        <mxCell id="Ugt3QYoSn1SEHyweIvQO-38" style="edgeStyle=orthogonalEdgeStyle;rounded=0;orthogonalLoop=1;jettySize=auto;html=1;exitX=1;exitY=0.5;exitDx=0;exitDy=0;entryX=0.5;entryY=1;entryDx=0;entryDy=0;" edge="1" parent="WIyWlLk6GJQsqaUBKTNV-1" source="Ugt3QYoSn1SEHyweIvQO-1" target="Ugt3QYoSn1SEHyweIvQO-14">
          <mxGeometry relative="1" as="geometry" />
        </mxCell>
        <mxCell id="Ugt3QYoSn1SEHyweIvQO-1" value="Artist(s)" style="rounded=0;whiteSpace=wrap;html=1;" vertex="1" parent="WIyWlLk6GJQsqaUBKTNV-1">
          <mxGeometry x="550" y="290" width="120" height="60" as="geometry" />
        </mxCell>
        <mxCell id="Ugt3QYoSn1SEHyweIvQO-28" style="edgeStyle=orthogonalEdgeStyle;rounded=0;orthogonalLoop=1;jettySize=auto;html=1;entryX=1;entryY=0.5;entryDx=0;entryDy=0;" edge="1" parent="WIyWlLk6GJQsqaUBKTNV-1" source="Ugt3QYoSn1SEHyweIvQO-2" target="Ugt3QYoSn1SEHyweIvQO-6">
          <mxGeometry relative="1" as="geometry" />
        </mxCell>
        <mxCell id="Ugt3QYoSn1SEHyweIvQO-45" value="M" style="edgeLabel;html=1;align=center;verticalAlign=middle;resizable=0;points=[];" vertex="1" connectable="0" parent="Ugt3QYoSn1SEHyweIvQO-28">
          <mxGeometry x="0.0375" y="-1" relative="1" as="geometry">
            <mxPoint as="offset" />
          </mxGeometry>
        </mxCell>
        <mxCell id="Ugt3QYoSn1SEHyweIvQO-37" style="edgeStyle=orthogonalEdgeStyle;rounded=0;orthogonalLoop=1;jettySize=auto;html=1;exitX=0.5;exitY=0;exitDx=0;exitDy=0;entryX=0.5;entryY=1;entryDx=0;entryDy=0;" edge="1" parent="WIyWlLk6GJQsqaUBKTNV-1" source="Ugt3QYoSn1SEHyweIvQO-2" target="Ugt3QYoSn1SEHyweIvQO-13">
          <mxGeometry relative="1" as="geometry" />
        </mxCell>
        <mxCell id="Ugt3QYoSn1SEHyweIvQO-2" value="Contribution" style="rounded=0;whiteSpace=wrap;html=1;" vertex="1" parent="WIyWlLk6GJQsqaUBKTNV-1">
          <mxGeometry x="550" y="170" width="120" height="60" as="geometry" />
        </mxCell>
        <mxCell id="Ugt3QYoSn1SEHyweIvQO-30" style="edgeStyle=orthogonalEdgeStyle;rounded=0;orthogonalLoop=1;jettySize=auto;html=1;entryX=0.5;entryY=1;entryDx=0;entryDy=0;" edge="1" parent="WIyWlLk6GJQsqaUBKTNV-1" source="Ugt3QYoSn1SEHyweIvQO-3" target="Ugt3QYoSn1SEHyweIvQO-4">
          <mxGeometry relative="1" as="geometry" />
        </mxCell>
        <mxCell id="Ugt3QYoSn1SEHyweIvQO-51" value="M" style="edgeLabel;html=1;align=center;verticalAlign=middle;resizable=0;points=[];" vertex="1" connectable="0" parent="Ugt3QYoSn1SEHyweIvQO-30">
          <mxGeometry x="-0.0889" y="-1" relative="1" as="geometry">
            <mxPoint as="offset" />
          </mxGeometry>
        </mxCell>
        <mxCell id="Ugt3QYoSn1SEHyweIvQO-40" style="edgeStyle=orthogonalEdgeStyle;rounded=0;orthogonalLoop=1;jettySize=auto;html=1;exitX=0.5;exitY=1;exitDx=0;exitDy=0;entryX=0.5;entryY=0;entryDx=0;entryDy=0;" edge="1" parent="WIyWlLk6GJQsqaUBKTNV-1" source="Ugt3QYoSn1SEHyweIvQO-3" target="Ugt3QYoSn1SEHyweIvQO-17">
          <mxGeometry relative="1" as="geometry" />
        </mxCell>
        <mxCell id="Ugt3QYoSn1SEHyweIvQO-41" style="edgeStyle=orthogonalEdgeStyle;rounded=0;orthogonalLoop=1;jettySize=auto;html=1;exitX=0.75;exitY=1;exitDx=0;exitDy=0;entryX=0.5;entryY=0;entryDx=0;entryDy=0;" edge="1" parent="WIyWlLk6GJQsqaUBKTNV-1" source="Ugt3QYoSn1SEHyweIvQO-3" target="Ugt3QYoSn1SEHyweIvQO-18">
          <mxGeometry relative="1" as="geometry" />
        </mxCell>
        <mxCell id="Ugt3QYoSn1SEHyweIvQO-3" value="Karaoke&lt;div&gt;File&lt;/div&gt;" style="rounded=0;whiteSpace=wrap;html=1;" vertex="1" parent="WIyWlLk6GJQsqaUBKTNV-1">
          <mxGeometry x="80" y="500" width="120" height="60" as="geometry" />
        </mxCell>
        <mxCell id="Ugt3QYoSn1SEHyweIvQO-4" value="Has" style="rhombus;whiteSpace=wrap;html=1;" vertex="1" parent="WIyWlLk6GJQsqaUBKTNV-1">
          <mxGeometry x="100" y="330" width="80" height="80" as="geometry" />
        </mxCell>
        <mxCell id="Ugt3QYoSn1SEHyweIvQO-6" value="Produced" style="rhombus;whiteSpace=wrap;html=1;" vertex="1" parent="WIyWlLk6GJQsqaUBKTNV-1">
          <mxGeometry x="350" y="200" width="80" height="80" as="geometry" />
        </mxCell>
        <mxCell id="Ugt3QYoSn1SEHyweIvQO-7" value="Produced" style="rhombus;whiteSpace=wrap;html=1;" vertex="1" parent="WIyWlLk6GJQsqaUBKTNV-1">
          <mxGeometry x="270" y="310" width="80" height="80" as="geometry" />
        </mxCell>
        <mxCell id="Ugt3QYoSn1SEHyweIvQO-26" style="edgeStyle=orthogonalEdgeStyle;rounded=0;orthogonalLoop=1;jettySize=auto;html=1;entryX=1;entryY=0.5;entryDx=0;entryDy=0;" edge="1" parent="WIyWlLk6GJQsqaUBKTNV-1" source="Ugt3QYoSn1SEHyweIvQO-8" target="Ugt3QYoSn1SEHyweIvQO-7">
          <mxGeometry relative="1" as="geometry" />
        </mxCell>
        <mxCell id="Ugt3QYoSn1SEHyweIvQO-48" value="M" style="edgeLabel;html=1;align=center;verticalAlign=middle;resizable=0;points=[];" vertex="1" connectable="0" parent="Ugt3QYoSn1SEHyweIvQO-26">
          <mxGeometry x="0.0248" y="1" relative="1" as="geometry">
            <mxPoint as="offset" />
          </mxGeometry>
        </mxCell>
        <mxCell id="Ugt3QYoSn1SEHyweIvQO-43" style="edgeStyle=orthogonalEdgeStyle;rounded=0;orthogonalLoop=1;jettySize=auto;html=1;exitX=1;exitY=0.5;exitDx=0;exitDy=0;entryX=0.5;entryY=1;entryDx=0;entryDy=0;" edge="1" parent="WIyWlLk6GJQsqaUBKTNV-1" source="Ugt3QYoSn1SEHyweIvQO-8" target="Ugt3QYoSn1SEHyweIvQO-15">
          <mxGeometry relative="1" as="geometry" />
        </mxCell>
        <mxCell id="Ugt3QYoSn1SEHyweIvQO-8" value="Queue" style="rounded=0;whiteSpace=wrap;html=1;" vertex="1" parent="WIyWlLk6GJQsqaUBKTNV-1">
          <mxGeometry x="510" y="420" width="120" height="60" as="geometry" />
        </mxCell>
        <mxCell id="Ugt3QYoSn1SEHyweIvQO-24" style="edgeStyle=orthogonalEdgeStyle;rounded=0;orthogonalLoop=1;jettySize=auto;html=1;exitX=0.5;exitY=0;exitDx=0;exitDy=0;entryX=0.5;entryY=1;entryDx=0;entryDy=0;" edge="1" parent="WIyWlLk6GJQsqaUBKTNV-1" source="Ugt3QYoSn1SEHyweIvQO-9" target="Ugt3QYoSn1SEHyweIvQO-7">
          <mxGeometry relative="1" as="geometry" />
        </mxCell>
        <mxCell id="Ugt3QYoSn1SEHyweIvQO-49" value="M" style="edgeLabel;html=1;align=center;verticalAlign=middle;resizable=0;points=[];" vertex="1" connectable="0" parent="Ugt3QYoSn1SEHyweIvQO-24">
          <mxGeometry x="0.1062" y="2" relative="1" as="geometry">
            <mxPoint y="-1" as="offset" />
          </mxGeometry>
        </mxCell>
        <mxCell id="Ugt3QYoSn1SEHyweIvQO-42" style="edgeStyle=orthogonalEdgeStyle;rounded=0;orthogonalLoop=1;jettySize=auto;html=1;exitX=0.5;exitY=1;exitDx=0;exitDy=0;entryX=0;entryY=0.5;entryDx=0;entryDy=0;" edge="1" parent="WIyWlLk6GJQsqaUBKTNV-1" source="Ugt3QYoSn1SEHyweIvQO-9" target="Ugt3QYoSn1SEHyweIvQO-16">
          <mxGeometry relative="1" as="geometry" />
        </mxCell>
        <mxCell id="Ugt3QYoSn1SEHyweIvQO-9" value="Singer" style="rounded=0;whiteSpace=wrap;html=1;" vertex="1" parent="WIyWlLk6GJQsqaUBKTNV-1">
          <mxGeometry x="320" y="500" width="120" height="60" as="geometry" />
        </mxCell>
        <mxCell id="Ugt3QYoSn1SEHyweIvQO-11" value="&lt;u&gt;Track#&lt;/u&gt;" style="ellipse;whiteSpace=wrap;html=1;" vertex="1" parent="WIyWlLk6GJQsqaUBKTNV-1">
          <mxGeometry x="50" y="90" width="90" height="40" as="geometry" />
        </mxCell>
        <mxCell id="Ugt3QYoSn1SEHyweIvQO-12" value="Title" style="ellipse;whiteSpace=wrap;html=1;" vertex="1" parent="WIyWlLk6GJQsqaUBKTNV-1">
          <mxGeometry x="180" y="90" width="90" height="40" as="geometry" />
        </mxCell>
        <mxCell id="Ugt3QYoSn1SEHyweIvQO-13" value="&lt;u&gt;ContributionName&lt;/u&gt;" style="ellipse;whiteSpace=wrap;html=1;" vertex="1" parent="WIyWlLk6GJQsqaUBKTNV-1">
          <mxGeometry x="520" y="60" width="150" height="50" as="geometry" />
        </mxCell>
        <mxCell id="Ugt3QYoSn1SEHyweIvQO-14" value="&lt;u&gt;Name&lt;/u&gt;" style="ellipse;whiteSpace=wrap;html=1;" vertex="1" parent="WIyWlLk6GJQsqaUBKTNV-1">
          <mxGeometry x="690" y="250" width="90" height="40" as="geometry" />
        </mxCell>
        <mxCell id="Ugt3QYoSn1SEHyweIvQO-15" value="&lt;u&gt;QueueNumber&lt;/u&gt;" style="ellipse;whiteSpace=wrap;html=1;" vertex="1" parent="WIyWlLk6GJQsqaUBKTNV-1">
          <mxGeometry x="680" y="390" width="90" height="40" as="geometry" />
        </mxCell>
        <mxCell id="Ugt3QYoSn1SEHyweIvQO-16" value="&lt;u&gt;StageName&lt;/u&gt;" style="ellipse;whiteSpace=wrap;html=1;" vertex="1" parent="WIyWlLk6GJQsqaUBKTNV-1">
          <mxGeometry x="470" y="565" width="90" height="40" as="geometry" />
        </mxCell>
        <mxCell id="Ugt3QYoSn1SEHyweIvQO-17" value="&lt;u&gt;Version&lt;/u&gt;" style="ellipse;whiteSpace=wrap;html=1;" vertex="1" parent="WIyWlLk6GJQsqaUBKTNV-1">
          <mxGeometry x="70" y="600" width="90" height="40" as="geometry" />
        </mxCell>
        <mxCell id="Ugt3QYoSn1SEHyweIvQO-18" value="Lyrics" style="ellipse;whiteSpace=wrap;html=1;" vertex="1" parent="WIyWlLk6GJQsqaUBKTNV-1">
          <mxGeometry x="200" y="585" width="90" height="40" as="geometry" />
        </mxCell>
      </root>
    </mxGraphModel>
  </diagram>
</mxfile>
